<?xml version="1.0" encoding="utf-8"?>
<!-- Generator: Adobe Illustrator 22.1.0, SVG Export Plug-In . SVG Version: 6.00 Build 0)  -->
<svg version="1.1" id="Layer_1" xmlns="http://www.w3.org/2000/svg" xmlns:xlink="http://www.w3.org/1999/xlink" x="0px" y="0px"
	 width="153px" height="44px" viewBox="0 0 153 44" style="enable-background:new 0 0 153 44;" xml:space="preserve">
<style type="text/css">
	.st0{fill:#F89921;}
	.st1{fill:#FCB415;}
	.st2{fill:#63BA46;}
	.st3{fill:#97C93D;}
	.st4{fill:none;stroke:#63BA46;stroke-width:0.6087;stroke-linecap:round;stroke-linejoin:round;stroke-miterlimit:10;}
</style>
<g>
	<g>
		<g>
			<path class="st0" d="M15.7,19.1c1.5-3,3.5-6,6.5-8.9c-0.5-1.8-1.1-3.6-1.9-5.4l-0.9-1.9c-1.5-3.3-5.6-3.3-7.1-0.1l-0.8,1.7
				c-0.9,1.8-1.6,3.7-2.1,5.7C12.2,13.2,14.2,16.2,15.7,19.1z"/>
			<path class="st1" d="M13.6,8.8l1.6,3.5c0.7,1.4,1.2,2.9,1.8,4.3c1.3-2.2,3-4.3,5.1-6.4c-0.5-1.8-1.1-3.6-1.9-5.4l-0.9-1.9
				c-1.5-3.3-5.6-3.3-7.1-0.1l-0.8,1.7c-0.2,0.3-0.3,0.6-0.4,1C12,6.3,13,7.4,13.6,8.8z"/>
			<path class="st2" d="M6.1,9.4c0,0-3.1,16.7,7.9,27.1c1.2,1.1,3.2,0.4,3.3-1.3C17.8,29.7,17.1,18.7,6.1,9.4z"/>
			<path class="st3" d="M18.7,35.2C18.7,35.3,18.7,35.3,18.7,35.2c9.8-10.4,6.8-26,6.8-26c-4.5,3.8-7.3,7.9-8.9,11.8
				C18.9,26.7,19,31.8,18.7,35.2z"/>
		</g>
		<g>
			<polyline class="st4" points="26.4,7.5 30.5,7.5 30.5,40.3 1.1,40.3 1.1,7.5 4.7,7.5 			"/>
		</g>
	</g>
	<g>
		<g>
			<path class="st2" d="M44.7,16.4c3.9,0,6.7,2.8,6.7,6.7c0,3.9-2.8,6.7-6.7,6.7S38,26.9,38,23C38,19.1,40.7,16.4,44.7,16.4z
				 M44.7,28.7c3.2,0,5.5-2.4,5.5-5.6c0-3.3-2.3-5.6-5.5-5.6s-5.5,2.4-5.5,5.6C39.1,26.3,41.5,28.7,44.7,28.7z"/>
			<path class="st2" d="M44.7,30.2c-4.1,0-7.1-3-7.1-7.1c0-4.1,3-7.1,7.1-7.1c4.1,0,7.1,3,7.1,7.1C51.8,27.2,48.8,30.2,44.7,30.2z
				 M44.7,17.9c-2.9,0-5.1,2.2-5.1,5.2c0,3,2.1,5.2,5.1,5.2c2.9,0,5.1-2.2,5.1-5.2C49.7,20,47.6,17.9,44.7,17.9z"/>
		</g>
		<g>
			<path class="st2" d="M97.6,17c0.5,0,0.8,0.3,0.8,0.8c0,0.5-0.3,0.8-0.8,0.8c-0.5,0-0.8-0.3-0.8-0.8C96.8,17.3,97.1,17,97.6,17z
				 M97,20.4h1.1v8.9H97V20.4z"/>
			<path class="st2" d="M98.6,29.7h-2v-9.8h2V29.7z M97.6,19c-0.7,0-1.2-0.5-1.2-1.2s0.5-1.2,1.2-1.2c0.7,0,1.2,0.5,1.2,1.2
				S98.3,19,97.6,19z"/>
		</g>
		<g>
			<path class="st0" d="M117.6,16.8l4.5,11.8v0.7h-1l-1-2.6h-6.6l-1,2.6h-1v-0.7l4.5-11.8H117.6z M113.7,25.7h6l-3-7.8L113.7,25.7z"
				/>
		</g>
		<g>
			<path class="st0" d="M133,23.1h-0.9c-0.4-1.2-1.8-2.2-3.2-2.2c-2.1,0-3.6,1.6-3.6,3.8c0,2.2,1.5,3.9,3.6,3.9
				c1.5,0,2.8-0.9,3.3-2.2h0.9v0.6c-0.6,1.5-2.3,2.5-4.1,2.5c-2.8,0-4.7-2-4.7-4.8c0-2.8,2-4.8,4.7-4.8c1.8,0,3.6,1.1,4.1,2.6V23.1z
				"/>
		</g>
		<g>
			<path class="st0" d="M141.4,20.7v1h-0.6c-0.2-0.4-0.9-0.7-1.6-0.7c-1.4,0-2.3,1.3-2.3,3.2v5.1h-1.1v-8.9h1.1v1.4
				c0.5-1.1,1.4-1.7,2.5-1.7C140.1,20,141,20.3,141.4,20.7z"/>
		</g>
		<g>
			<path class="st0" d="M152.2,24.7c0,0.4,0,0.8-0.1,1.1h-8c0.4,1.7,1.7,2.8,3.4,2.8c1.4,0,2.7-0.7,3.2-1.7h0.9v0.5
				c-0.6,1.3-2.4,2.2-4.1,2.2c-2.6,0-4.6-2.1-4.6-5c0-2.7,1.9-4.7,4.6-4.7C150.2,20,152.2,22,152.2,24.7z M144,24.9h7.1
				c0.1-2.2-1.4-3.9-3.6-3.9c-2,0-3.5,1.5-3.5,3.7V24.9z"/>
		</g>
		<path class="st2" d="M55.8,29.7h-2v-9.8h1.9v0.5c0.6-0.5,1.3-0.8,2.1-0.8c0.9,0,1.9,0.3,2.3,0.8l0.1,0.1v1.6H59l-0.1-0.2
			c-0.1-0.2-0.6-0.5-1.2-0.5c-1.1,0-1.9,1.1-1.9,2.8V29.7z"/>
		<path class="st2" d="M78.1,30.1c-3,0-5.2-2.2-5.2-5.3c0-3,2.2-5.3,5.2-5.3c3,0,5.2,2.2,5.2,5.3v4.9h-1.9v-0.9
			C80.6,29.7,79.4,30.1,78.1,30.1z M78.1,21.4c-1.9,0-3.2,1.4-3.2,3.4c0,2,1.3,3.4,3.2,3.4c1.9,0,3.2-1.4,3.2-3.4
			C81.3,22.9,80,21.4,78.1,21.4z"/>
		<path class="st2" d="M94.3,29.7h-2v-5.6c0-1.6-1-2.7-2.4-2.7c-1.4,0-2.5,1.1-2.5,2.6v5.7h-2v-9.8h2v0.5c0.7-0.6,1.6-0.9,2.6-0.9
			c2.5,0,4.3,1.8,4.3,4.4V29.7z"/>
		<path class="st2" d="M105.7,30.1c-3,0-5.2-2.2-5.2-5.3c0-3,2.2-5.3,5.2-5.3c2,0,3.9,1.2,4.5,2.9l0,0.1v1.1h-1.6l-0.1-0.3
			c-0.4-1.1-1.6-1.9-2.8-1.9c-1.9,0-3.2,1.4-3.2,3.4c0,2,1.3,3.4,3.2,3.4c1.3,0,2.5-0.8,2.8-1.9l0.1-0.3h1.6v1.1l0,0.1
			C109.6,28.9,107.7,30.1,105.7,30.1z"/>
		<polygon class="st2" points="63,29.4 63,29.4 63,29.4 		"/>
		<path class="st2" d="M66.1,19.6c-3,0-5.2,2.2-5.2,5.3c0,3,2.2,5.2,5.1,5.2c1.2,0,2.4-0.5,3.2-1.3v0.5c0,1.8-1.3,3-3,3
			c-1.5,0-2.7-0.8-3.1-2h-2v0.1l0,0.1c0.5,2.1,2.6,3.7,5.1,3.7c2.9,0,5-2,5-4.8v-4.5C71.3,21.8,69.1,19.6,66.1,19.6z M66.1,28.1
			c-1.9,0-3.2-1.4-3.2-3.3c0-2,1.3-3.4,3.2-3.4s3.2,1.4,3.2,3.4C69.3,26.8,68,28.1,66.1,28.1z"/>
	</g>
</g>
</svg>
